<svg width="433" height="230" viewBox="0 0 420 255" fill="none" xmlns="http://www.w3.org/2000/svg">
<g filter="url(#filter0_bf)">
<rect x="4" y="15" width="425" height="212" rx="63" fill="#A63B3B"/>
<rect x="4.5" y="15.5" width="424" height="211" rx="62.5" stroke="#27B6AD"/>
</g>
<g filter="url(#filter1_d)">
<path d="M171.156 124.562C171.156 125.521 171.031 126.365 170.781 127.094C170.552 127.802 170.292 128.406 170 128.906C169.708 129.385 169.438 129.75 169.188 130C168.938 130.229 168.802 130.354 168.781 130.375L168.469 130.625L168.031 130.562C166.969 130.25 166.083 130.021 165.375 129.875C164.667 129.708 163.99 129.625 163.344 129.625C162.74 129.625 162.115 129.698 161.469 129.844C160.823 129.969 160.042 130.167 159.125 130.438L158.75 130.5C157.979 130.188 157.125 129.99 156.188 129.906C155.25 129.802 154.458 129.75 153.812 129.75C152.979 129.75 152.135 129.844 151.281 130.031C150.448 130.219 149.5 130.51 148.438 130.906H147.875C147.833 130.885 147.635 130.781 147.281 130.594C146.948 130.385 146.583 130.042 146.188 129.562C145.792 129.083 145.427 128.438 145.094 127.625C144.76 126.812 144.594 125.792 144.594 124.562C144.594 123.438 144.75 122.5 145.062 121.75C145.375 121 145.719 120.406 146.094 119.969C146.49 119.531 146.854 119.229 147.188 119.062C147.521 118.875 147.708 118.771 147.75 118.75L148 118.594L148.312 118.75C149.208 119.062 150.042 119.292 150.812 119.438C151.604 119.562 152.396 119.625 153.188 119.625C153.958 119.625 154.729 119.573 155.5 119.469C156.292 119.344 157.135 119.167 158.031 118.938L158.281 118.812L158.562 118.938C159.583 119.292 160.479 119.552 161.25 119.719C162.021 119.865 162.76 119.938 163.469 119.938C164.177 119.938 164.885 119.865 165.594 119.719C166.302 119.573 167.115 119.354 168.031 119.062L168.406 118.938L168.719 119.125C168.74 119.146 168.875 119.26 169.125 119.469C169.375 119.677 169.646 120 169.938 120.438C170.229 120.875 170.49 121.438 170.719 122.125C170.969 122.812 171.115 123.625 171.156 124.562ZM200.594 136.781C200.594 136.844 200.583 137.052 200.562 137.406C200.542 137.76 200.427 138.208 200.219 138.75C200.031 139.271 199.708 139.844 199.25 140.469C198.792 141.094 198.115 141.698 197.219 142.281C196.99 142.76 196.76 143.135 196.531 143.406C196.302 143.677 196.167 143.833 196.125 143.875L195.875 144.219L195.406 144.156C194.677 144.052 194.031 143.969 193.469 143.906C192.927 143.844 192.427 143.812 191.969 143.812C191.49 143.812 191.042 143.844 190.625 143.906C190.208 143.969 189.781 144.062 189.344 144.188C188.927 144.312 188.479 144.479 188 144.688C187.542 144.875 187.031 145.104 186.469 145.375L186 145.438C185.458 145.438 184.927 145.417 184.406 145.375C183.906 145.312 183.458 145.281 183.062 145.281C182.5 145.281 181.99 145.312 181.531 145.375C181.094 145.438 180.656 145.542 180.219 145.688C179.781 145.833 179.312 146.021 178.812 146.25C178.312 146.479 177.729 146.76 177.062 147.094L176.719 147.281L176.469 147.219C175.677 146.948 174.979 146.531 174.375 145.969C173.854 145.49 173.375 144.812 172.938 143.938C172.521 143.062 172.312 141.917 172.312 140.5C172.312 139.625 172.427 138.885 172.656 138.281C172.906 137.677 173.177 137.188 173.469 136.812C173.781 136.438 174.062 136.167 174.312 136C174.562 135.812 174.708 135.708 174.75 135.688L175 135.5L175.312 135.562C175.958 135.688 176.521 135.781 177 135.844C177.479 135.906 177.927 135.938 178.344 135.938C178.719 135.938 179.083 135.917 179.438 135.875C179.812 135.812 180.208 135.729 180.625 135.625C181.042 135.5 181.5 135.354 182 135.188C182.521 135 183.135 134.781 183.844 134.531L184.094 134.406L184.344 134.469C185.323 134.677 186.198 134.812 186.969 134.875C186.719 134.479 186.417 134.094 186.062 133.719C185.729 133.323 185.375 132.917 185 132.5L184.781 132.188C184.49 131.125 184.167 130.156 183.812 129.281C183.458 128.385 183.042 127.552 182.562 126.781C182.104 126.01 181.583 125.281 181 124.594C180.417 123.906 179.76 123.229 179.031 122.562L178.781 122.375V122.125C178.427 120 177.781 118.062 176.844 116.312C175.906 114.542 174.656 112.938 173.094 111.5L172.812 111.25V110.875C172.812 110.854 172.833 110.76 172.875 110.594C172.917 110.427 172.99 110.208 173.094 109.938C173.198 109.667 173.354 109.354 173.562 109C173.771 108.646 174.042 108.281 174.375 107.906C174.333 107.802 174.312 107.708 174.312 107.625C174.312 107.542 174.312 107.448 174.312 107.344C174.312 106.469 174.427 105.729 174.656 105.125C174.906 104.521 175.177 104.031 175.469 103.656C175.76 103.281 176.031 103.01 176.281 102.844C176.531 102.656 176.677 102.552 176.719 102.531L177 102.406L177.312 102.469C178.479 102.74 179.458 102.875 180.25 102.875C180.625 102.875 180.979 102.854 181.312 102.812C181.646 102.75 182 102.667 182.375 102.562C182.771 102.438 183.198 102.302 183.656 102.156C184.115 102.01 184.646 101.844 185.25 101.656C185.354 101.615 185.448 101.583 185.531 101.562C185.615 101.521 185.708 101.469 185.812 101.406L186.062 101.25L186.344 101.312C187.115 101.479 187.792 101.604 188.375 101.688C188.979 101.75 189.531 101.781 190.031 101.781C190.969 101.781 191.875 101.646 192.75 101.375C193.625 101.104 194.688 100.688 195.938 100.125L196.312 99.9062L196.688 100.125C196.708 100.146 196.844 100.24 197.094 100.406C197.365 100.573 197.667 100.844 198 101.219C198.333 101.594 198.667 102.083 199 102.688C199.333 103.292 199.573 104.031 199.719 104.906C199.76 105.135 199.792 105.375 199.812 105.625C199.833 105.854 199.844 106.062 199.844 106.25C199.844 106.958 199.76 107.594 199.594 108.156C199.427 108.698 199.24 109.167 199.031 109.562C198.823 109.938 198.625 110.24 198.438 110.469C198.271 110.677 198.177 110.792 198.156 110.812L197.844 111.062L197.406 111C196.698 110.896 196.062 110.823 195.5 110.781C194.958 110.719 194.458 110.688 194 110.688C193.521 110.688 193.073 110.719 192.656 110.781C192.24 110.823 191.812 110.906 191.375 111.031C190.958 111.156 190.51 111.323 190.031 111.531C189.552 111.719 189.021 111.948 188.438 112.219L188.25 112.344L188 112.281C187.479 112.281 187.01 112.271 186.594 112.25C186.177 112.229 185.792 112.219 185.438 112.219C185.854 112.927 186.312 113.604 186.812 114.25C187.333 114.875 187.917 115.479 188.562 116.062L188.75 116.375C189.062 117.5 189.396 118.531 189.75 119.469C190.104 120.385 190.51 121.24 190.969 122.031C191.427 122.802 191.948 123.531 192.531 124.219C193.135 124.906 193.823 125.573 194.594 126.219L194.844 126.688C195.052 127.771 195.292 128.75 195.562 129.625C195.854 130.479 196.208 131.281 196.625 132.031C197.062 132.781 197.573 133.5 198.156 134.188C198.76 134.875 199.49 135.573 200.344 136.281L200.531 136.469L200.594 136.781ZM225.844 123.906C225.844 124.844 225.719 125.667 225.469 126.375C225.219 127.062 224.938 127.646 224.625 128.125C224.312 128.604 224.021 128.969 223.75 129.219C223.5 129.469 223.365 129.604 223.344 129.625L223.031 129.875L222.594 129.75C221.427 129.354 220.396 129.062 219.5 128.875C218.625 128.688 217.75 128.594 216.875 128.594C216.229 128.594 215.594 128.656 214.969 128.781L215.156 129.156L215.281 129.438L215.156 129.688C214.656 131.104 214.312 132.51 214.125 133.906C214.458 133.823 214.833 133.75 215.25 133.688C215.667 133.625 216.062 133.573 216.438 133.531C216.812 133.49 217.125 133.458 217.375 133.438C217.625 133.417 217.76 133.406 217.781 133.406L218.031 133.312L218.281 133.469C219.469 133.948 220.479 134.312 221.312 134.562C222.146 134.812 222.99 134.938 223.844 134.938C224.427 134.938 225.062 134.875 225.75 134.75C226.438 134.625 227.219 134.448 228.094 134.219L228.469 134.094L228.781 134.344C228.802 134.385 228.917 134.521 229.125 134.75C229.354 134.958 229.594 135.292 229.844 135.75C230.094 136.188 230.323 136.75 230.531 137.438C230.74 138.104 230.844 138.906 230.844 139.844C230.823 140.781 230.677 141.594 230.406 142.281C230.135 142.969 229.844 143.552 229.531 144.031C229.219 144.49 228.927 144.844 228.656 145.094C228.385 145.344 228.24 145.479 228.219 145.5L227.812 145.688L227.438 145.562C226.208 145.104 225.188 144.781 224.375 144.594C223.562 144.385 222.771 144.281 222 144.281C221.458 144.281 220.896 144.333 220.312 144.438C219.729 144.521 219.052 144.656 218.281 144.844H217.844C217.26 144.74 216.677 144.625 216.094 144.5C215.531 144.354 214.958 144.219 214.375 144.094C214.167 144.323 213.896 144.573 213.562 144.844C213.25 145.094 212.854 145.323 212.375 145.531C211.917 145.74 211.375 145.906 210.75 146.031C210.146 146.177 209.458 146.25 208.688 146.25C207.458 146.25 206.438 146.083 205.625 145.75C204.833 145.417 204.198 145.052 203.719 144.656C203.26 144.24 202.938 143.865 202.75 143.531C202.562 143.177 202.469 142.979 202.469 142.938L202.344 142.688L202.469 142.344C202.948 141.198 203.302 140.021 203.531 138.812C203.76 137.604 203.875 136.375 203.875 135.125C203.875 134.25 203.823 133.365 203.719 132.469C203.635 131.573 203.479 130.646 203.25 129.688V129.281C203.5 128.26 203.698 127.26 203.844 126.281C204.01 125.281 204.094 124.281 204.094 123.281C204.094 122.177 204 121.094 203.812 120.031C203.625 118.969 203.375 117.917 203.062 116.875L203 116.562L203.125 116.312C203.583 115.188 203.917 114.062 204.125 112.938C204.354 111.792 204.469 110.656 204.469 109.531C204.469 108.615 204.396 107.708 204.25 106.812C204.125 105.896 203.917 104.969 203.625 104.031L203.5 103.625L203.75 103.312C203.771 103.292 203.896 103.167 204.125 102.938C204.354 102.688 204.698 102.427 205.156 102.156C205.635 101.865 206.229 101.615 206.938 101.406C207.646 101.177 208.49 101.062 209.469 101.062C210.594 101.062 211.552 101.219 212.344 101.531C213.135 101.844 213.771 102.177 214.25 102.531C214.854 102.469 215.49 102.375 216.156 102.25C216.823 102.125 217.49 101.948 218.156 101.719L218.406 101.594L218.75 101.656C219.75 101.969 220.615 102.208 221.344 102.375C222.094 102.521 222.802 102.594 223.469 102.594C224.198 102.594 224.958 102.5 225.75 102.312C226.542 102.125 227.469 101.844 228.531 101.469L228.906 101.312L229.25 101.531C229.271 101.552 229.406 101.667 229.656 101.875C229.906 102.083 230.177 102.406 230.469 102.844C230.76 103.26 231.031 103.802 231.281 104.469C231.552 105.115 231.719 105.906 231.781 106.844V107.406C231.781 108.24 231.677 108.979 231.469 109.625C231.26 110.271 231.021 110.823 230.75 111.281C230.5 111.719 230.26 112.052 230.031 112.281C229.823 112.51 229.708 112.635 229.688 112.656L229.375 112.906L228.906 112.781C227.906 112.552 227.052 112.385 226.344 112.281C225.635 112.156 224.979 112.094 224.375 112.094C223.667 112.094 222.958 112.177 222.25 112.344C221.562 112.49 220.729 112.719 219.75 113.031L219.312 113.094C218.438 112.927 217.594 112.802 216.781 112.719C215.99 112.635 215.188 112.594 214.375 112.594C214.438 113.177 214.521 113.76 214.625 114.344C214.75 114.906 214.906 115.479 215.094 116.062V116.5C214.969 116.875 214.865 117.25 214.781 117.625C214.719 117.979 214.656 118.354 214.594 118.75C215.198 118.917 215.76 119.031 216.281 119.094C216.823 119.156 217.385 119.188 217.969 119.188C218.74 119.188 219.521 119.125 220.312 119C221.104 118.854 221.969 118.635 222.906 118.344L223.281 118.219L223.594 118.469C223.615 118.49 223.74 118.615 223.969 118.844C224.219 119.052 224.479 119.385 224.75 119.844C225.042 120.281 225.292 120.844 225.5 121.531C225.729 122.198 225.844 122.99 225.844 123.906ZM264.438 120.719L264.375 121.094L264 121.281C262.646 121.865 261.406 122.521 260.281 123.25C259.177 123.958 258.177 124.781 257.281 125.719C257.635 126.677 258.094 127.542 258.656 128.312C259.219 129.062 259.958 129.865 260.875 130.719L261.062 131.031C261.417 132.823 262 134.448 262.812 135.906C263.646 137.365 264.771 138.698 266.188 139.906L266.438 140.062V140.375C266.438 140.417 266.417 140.615 266.375 140.969C266.354 141.323 266.229 141.76 266 142.281C265.792 142.802 265.438 143.365 264.938 143.969C264.438 144.573 263.719 145.146 262.781 145.688C262.052 146.104 261.365 146.385 260.719 146.531C260.094 146.698 259.542 146.781 259.062 146.781C258.625 146.781 258.24 146.74 257.906 146.656C257.573 146.573 257.292 146.479 257.062 146.375C256.833 146.271 256.656 146.177 256.531 146.094C256.406 146.01 256.333 145.958 256.312 145.938L256.125 145.812L256.062 145.5C255.958 144.688 255.792 143.927 255.562 143.219C255.354 142.51 255.083 141.823 254.75 141.156C254.417 140.49 254.021 139.833 253.562 139.188C253.125 138.542 252.635 137.885 252.094 137.219C251.885 137.01 251.74 136.885 251.656 136.844L251.469 136.656V136.406C251.302 135.427 251.104 134.562 250.875 133.812C250.667 133.042 250.375 132.323 250 131.656C249.125 132.302 248.281 133.021 247.469 133.812C246.677 134.604 245.958 135.427 245.312 136.281C245.271 136.448 245.26 136.604 245.281 136.75C245.302 136.896 245.312 137.052 245.312 137.219C245.312 138.323 245.396 139.406 245.562 140.469C245.729 141.51 246.01 142.562 246.406 143.625L246.531 143.875L246.406 144.219C246.385 144.26 246.271 144.448 246.062 144.781C245.854 145.094 245.51 145.438 245.031 145.812C244.552 146.188 243.896 146.521 243.062 146.812C242.25 147.125 241.229 147.281 240 147.281C238.771 147.281 237.75 147.115 236.938 146.781C236.146 146.469 235.51 146.115 235.031 145.719C234.573 145.302 234.25 144.927 234.062 144.594C233.875 144.26 233.781 144.073 233.781 144.031L233.656 143.688L233.781 143.438C234.26 142.271 234.615 141.094 234.844 139.906C235.073 138.698 235.188 137.448 235.188 136.156C235.188 135.281 235.135 134.406 235.031 133.531C234.948 132.635 234.792 131.719 234.562 130.781V130.375C234.812 129.354 235.01 128.344 235.156 127.344C235.323 126.323 235.406 125.333 235.406 124.375C235.406 123.25 235.312 122.156 235.125 121.094C234.938 120.031 234.688 118.969 234.375 117.906L234.312 117.656L234.438 117.406C235.333 115.115 235.781 112.823 235.781 110.531C235.781 109.594 235.708 108.677 235.562 107.781C235.438 106.885 235.229 105.969 234.938 105.031L234.812 104.656L235.062 104.344C235.083 104.323 235.167 104.24 235.312 104.094C235.458 103.927 235.677 103.74 235.969 103.531C236.26 103.302 236.635 103.083 237.094 102.875C237.552 102.646 238.094 102.469 238.719 102.344C239.115 101.719 239.562 101.229 240.062 100.875C240.562 100.5 241.031 100.219 241.469 100.031C241.927 99.8438 242.312 99.7188 242.625 99.6562C242.958 99.5938 243.146 99.5521 243.188 99.5312H243.531L243.781 99.7188C244.385 100.26 245.052 100.781 245.781 101.281C246.51 101.781 247.281 102.219 248.094 102.594C248.906 102.969 249.76 103.271 250.656 103.5C251.552 103.708 252.479 103.812 253.438 103.812L253.969 104.031C254.802 104.76 255.594 105.385 256.344 105.906C257.115 106.406 257.906 106.823 258.719 107.156C259.531 107.49 260.385 107.75 261.281 107.938C262.177 108.125 263.167 108.25 264.25 108.312L264.656 108.375L264.906 108.688C264.906 108.729 264.938 108.823 265 108.969C265.083 109.115 265.167 109.323 265.25 109.594C265.333 109.844 265.406 110.156 265.469 110.531C265.552 110.885 265.594 111.292 265.594 111.75C265.594 112.167 265.552 112.615 265.469 113.094C265.406 113.573 265.281 114.083 265.094 114.625C264.802 115.479 264.438 116.188 264 116.75C264.229 117.292 264.375 117.802 264.438 118.281C264.521 118.74 264.562 119.146 264.562 119.5C264.562 119.854 264.542 120.135 264.5 120.344C264.458 120.552 264.438 120.677 264.438 120.719ZM250.312 115.031L249.906 114.906C249.115 114.448 248.375 114.021 247.688 113.625C247 113.208 246.333 112.844 245.688 112.531C245.688 113.302 245.75 114.073 245.875 114.844C246 115.594 246.177 116.354 246.406 117.125V117.594C245.885 119.344 245.562 121.052 245.438 122.719C245.771 122.385 246.073 122.052 246.344 121.719C246.635 121.385 246.865 121.073 247.031 120.781L247.5 120.406C248.875 119.885 250.156 119.26 251.344 118.531C252.552 117.781 253.656 116.885 254.656 115.844C253.365 115.427 251.917 115.156 250.312 115.031ZM298.438 107.719L298.25 108.125C297.771 108.938 297.365 109.708 297.031 110.438C296.719 111.146 296.458 111.844 296.25 112.531C296.042 113.219 295.896 113.917 295.812 114.625C295.729 115.312 295.688 116.042 295.688 116.812C295.688 117.042 295.688 117.271 295.688 117.5C295.688 117.729 295.708 117.969 295.75 118.219L295.625 118.688C295.188 119.542 294.802 120.354 294.469 121.125C294.156 121.896 293.896 122.646 293.688 123.375C293.5 124.083 293.354 124.802 293.25 125.531C293.167 126.24 293.125 126.979 293.125 127.75C293.125 128.104 293.135 128.458 293.156 128.812C293.177 129.167 293.208 129.542 293.25 129.938L293.125 130.438C292.167 132.062 291.438 133.74 290.938 135.469C290.438 137.177 290.188 138.979 290.188 140.875C290.188 141.229 290.198 141.583 290.219 141.938C290.24 142.292 290.271 142.646 290.312 143V143.25L290.125 143.5C290.104 143.542 290 143.667 289.812 143.875C289.646 144.083 289.375 144.312 289 144.562C288.646 144.792 288.188 145.01 287.625 145.219C287.083 145.406 286.427 145.5 285.656 145.5H284.75C284.104 145.917 283.312 146.302 282.375 146.656C281.458 147.031 280.438 147.219 279.312 147.219C278.542 147.219 277.875 147.115 277.312 146.906C276.771 146.719 276.312 146.51 275.938 146.281C275.583 146.052 275.312 145.833 275.125 145.625C274.958 145.417 274.865 145.302 274.844 145.281L274.625 145.031L274.719 144.719C274.76 144.302 274.792 143.896 274.812 143.5C274.833 143.104 274.844 142.698 274.844 142.281C274.844 140.615 274.625 138.958 274.188 137.312C273.771 135.646 273.115 133.979 272.219 132.312L272.094 131.906C272.094 127.448 270.979 123.438 268.75 119.875L268.625 119.375C268.667 118.958 268.698 118.552 268.719 118.156C268.74 117.76 268.75 117.354 268.75 116.938C268.75 113.521 267.833 110.323 266 107.344L265.812 107.031L266 106.625C266 106.646 266.115 106.458 266.344 106.062C266.573 105.667 266.958 105.229 267.5 104.75C268.062 104.25 268.802 103.792 269.719 103.375C270.635 102.958 271.781 102.75 273.156 102.75C273.781 102.75 274.344 102.812 274.844 102.938C275.344 103.042 275.771 103.167 276.125 103.312C276.479 103.458 276.75 103.594 276.938 103.719C277.146 103.844 277.271 103.917 277.312 103.938L277.656 104.219V104.656C277.615 104.948 277.594 105.24 277.594 105.531C277.594 105.802 277.594 106.083 277.594 106.375C277.594 108.188 277.802 109.896 278.219 111.5C278.635 113.083 279.302 114.604 280.219 116.062L280.281 116.5C280.281 118.562 280.458 120.438 280.812 122.125C281.188 123.812 281.771 125.438 282.562 127C283.271 125.521 283.792 124.125 284.125 122.812C284.458 121.479 284.625 120.052 284.625 118.531C284.625 118.219 284.625 117.906 284.625 117.594C284.625 117.26 284.604 116.917 284.562 116.562L284.688 116.062C285.208 115.271 285.635 114.521 285.969 113.812C286.323 113.083 286.604 112.365 286.812 111.656C287.042 110.948 287.198 110.229 287.281 109.5C287.385 108.75 287.438 107.948 287.438 107.094C287.438 106.802 287.427 106.51 287.406 106.219C287.385 105.927 287.375 105.615 287.375 105.281V104.906L287.625 104.656C287.646 104.635 287.75 104.562 287.938 104.438C288.125 104.312 288.385 104.177 288.719 104.031C289.052 103.885 289.458 103.75 289.938 103.625C290.417 103.5 290.969 103.438 291.594 103.438C292.802 103.438 293.833 103.646 294.688 104.062C295.542 104.458 296.229 104.896 296.75 105.375C297.292 105.854 297.677 106.302 297.906 106.719C298.156 107.115 298.292 107.323 298.312 107.344L298.438 107.719ZM313.594 103.875L313.406 104.281C313.031 105.427 312.74 106.552 312.531 107.656C312.344 108.74 312.25 109.833 312.25 110.938C312.25 111.812 312.302 112.667 312.406 113.5C312.531 114.312 312.719 115.135 312.969 115.969V116.438C312.323 118.708 312 120.885 312 122.969C312 124.031 312.083 125.073 312.25 126.094C312.417 127.094 312.677 128.094 313.031 129.094L313.156 129.375L313.031 129.625C312.635 130.688 312.344 131.76 312.156 132.844C311.969 133.906 311.875 134.99 311.875 136.094C311.875 137.177 311.958 138.25 312.125 139.312C312.292 140.354 312.573 141.406 312.969 142.469L313.094 142.812L312.969 143.062C312.948 143.104 312.833 143.292 312.625 143.625C312.417 143.938 312.073 144.281 311.594 144.656C311.115 145.031 310.458 145.375 309.625 145.688C308.812 145.979 307.792 146.125 306.562 146.125C305.333 146.125 304.312 145.969 303.5 145.656C302.708 145.323 302.073 144.958 301.594 144.562C301.135 144.146 300.812 143.771 300.625 143.438C300.438 143.104 300.344 142.917 300.344 142.875L300.219 142.531L300.344 142.281C300.823 141.115 301.177 139.938 301.406 138.75C301.635 137.542 301.75 136.292 301.75 135C301.75 134.125 301.698 133.25 301.594 132.375C301.51 131.479 301.354 130.562 301.125 129.625V129.219C301.375 128.198 301.573 127.198 301.719 126.219C301.885 125.219 301.969 124.219 301.969 123.219C301.969 122.094 301.875 121 301.688 119.938C301.5 118.875 301.25 117.812 300.938 116.75L300.875 116.5L301 116.25C301.896 113.958 302.344 111.677 302.344 109.406C302.344 108.49 302.271 107.583 302.125 106.688C302 105.792 301.792 104.875 301.5 103.938L301.375 103.562L301.625 103.25C301.646 103.229 301.771 103.104 302 102.875C302.229 102.625 302.573 102.365 303.031 102.094C303.51 101.802 304.104 101.552 304.812 101.344C305.521 101.115 306.365 101 307.344 101C308.344 101 309.208 101.135 309.938 101.406C310.667 101.656 311.271 101.938 311.75 102.25C312.25 102.562 312.625 102.854 312.875 103.125C313.125 103.396 313.26 103.542 313.281 103.562L313.594 103.875ZM331.5 117.469L331.438 117.656C330.833 119.073 330.396 120.365 330.125 121.531C329.854 122.677 329.719 123.812 329.719 124.938C329.719 125.604 329.76 126.271 329.844 126.938C329.927 127.604 330.052 128.302 330.219 129.031L330.281 129.281L330.156 129.562C329.552 130.75 329.083 131.812 328.75 132.75C328.438 133.667 328.25 134.625 328.188 135.625C328.604 135.562 328.979 135.49 329.312 135.406C329.646 135.323 329.969 135.229 330.281 135.125C330.615 135 330.948 134.875 331.281 134.75C331.635 134.625 332.031 134.49 332.469 134.344C332.573 134.302 332.667 134.271 332.75 134.25C332.833 134.208 332.927 134.156 333.031 134.094L333.281 133.969L333.562 134.031C334.271 134.198 334.938 134.312 335.562 134.375C336.208 134.438 336.812 134.469 337.375 134.469C338.562 134.469 339.719 134.323 340.844 134.031C341.969 133.74 343.208 133.271 344.562 132.625L344.938 132.438L345.25 132.625C345.271 132.646 345.417 132.75 345.688 132.938C345.958 133.125 346.26 133.427 346.594 133.844C346.948 134.24 347.292 134.76 347.625 135.406C347.958 136.031 348.198 136.812 348.344 137.75C348.385 137.979 348.406 138.198 348.406 138.406C348.406 138.615 348.406 138.823 348.406 139.031C348.406 139.76 348.323 140.417 348.156 141C347.99 141.583 347.802 142.083 347.594 142.5C347.385 142.896 347.188 143.208 347 143.438C346.833 143.667 346.74 143.792 346.719 143.812L346.406 144.156L346.031 144.031C345.385 143.927 344.771 143.844 344.188 143.781C343.604 143.719 343.042 143.688 342.5 143.688C341.271 143.688 340.125 143.833 339.062 144.125C338.021 144.417 336.885 144.854 335.656 145.438L335.406 145.562L335.219 145.5C334.74 145.5 334.271 145.479 333.812 145.438C333.354 145.396 332.906 145.375 332.469 145.375C330.906 145.375 329.385 145.552 327.906 145.906C326.427 146.26 324.979 146.802 323.562 147.531L323.25 147.656L323 147.594C323.062 147.615 322.906 147.552 322.531 147.406C322.156 147.26 321.719 146.99 321.219 146.594C320.719 146.219 320.229 145.698 319.75 145.031C319.292 144.344 319.01 143.469 318.906 142.406C318.344 142.094 317.875 141.76 317.5 141.406C317.146 141.031 316.854 140.688 316.625 140.375C316.417 140.062 316.271 139.802 316.188 139.594C316.104 139.365 316.062 139.24 316.062 139.219L316 138.906L316.125 138.625C316.521 137.917 316.865 137.25 317.156 136.625C317.448 136 317.688 135.396 317.875 134.812C318.062 134.208 318.198 133.604 318.281 133C318.385 132.375 318.438 131.698 318.438 130.969C318.438 130.115 318.375 129.156 318.25 128.094L318.312 127.688C318.854 126.375 319.25 125.156 319.5 124.031C319.771 122.906 319.906 121.781 319.906 120.656C319.906 120.01 319.865 119.354 319.781 118.688C319.698 118 319.594 117.292 319.469 116.562L319.406 116.25L319.531 116.062C320.01 115.125 320.406 114.271 320.719 113.5C321.031 112.708 321.271 111.917 321.438 111.125C321.125 110.708 320.854 110.156 320.625 109.469C320.417 108.76 320.312 107.906 320.312 106.906C320.312 105.573 320.479 104.49 320.812 103.656C321.167 102.802 321.552 102.135 321.969 101.656C322.406 101.177 322.802 100.854 323.156 100.688C323.51 100.521 323.708 100.438 323.75 100.438L324.062 100.312L324.344 100.438C325.427 100.979 326.521 101.375 327.625 101.625C328.729 101.854 329.896 101.969 331.125 101.969C331.625 101.969 332.208 101.969 332.875 101.969C333.542 101.948 334.146 101.844 334.688 101.656L334.969 101.594L335.219 101.719C336.448 102.26 337.562 102.677 338.562 102.969C339.583 103.24 340.625 103.375 341.688 103.375C342.333 103.375 342.979 103.333 343.625 103.25C344.292 103.146 344.99 103 345.719 102.812L346.094 102.75L346.344 103C346.365 103.021 346.479 103.135 346.688 103.344C346.896 103.552 347.104 103.865 347.312 104.281C347.542 104.698 347.75 105.229 347.938 105.875C348.125 106.5 348.219 107.25 348.219 108.125V108.625C348.156 109.562 347.979 110.385 347.688 111.094C347.417 111.781 347.125 112.354 346.812 112.812C346.5 113.25 346.208 113.583 345.938 113.812C345.688 114.042 345.552 114.167 345.531 114.188L345.125 114.438L344.75 114.312C343.521 113.792 342.417 113.406 341.438 113.156C340.479 112.906 339.51 112.781 338.531 112.781C337.948 112.781 337.365 112.823 336.781 112.906C336.198 112.99 335.573 113.115 334.906 113.281L334.438 113.219C333.833 113.115 333.281 113 332.781 112.875C332.281 112.729 331.771 112.594 331.25 112.469C331.208 112.781 331.188 113.083 331.188 113.375C331.188 113.667 331.188 113.958 331.188 114.25C331.188 114.708 331.208 115.177 331.25 115.656C331.312 116.135 331.396 116.646 331.5 117.188V117.469ZM373.781 123.906C373.781 124.844 373.656 125.667 373.406 126.375C373.156 127.062 372.875 127.646 372.562 128.125C372.25 128.604 371.958 128.969 371.688 129.219C371.438 129.469 371.302 129.604 371.281 129.625L370.969 129.875L370.531 129.75C369.365 129.354 368.333 129.062 367.438 128.875C366.562 128.688 365.688 128.594 364.812 128.594C364.167 128.594 363.531 128.656 362.906 128.781L363.094 129.156L363.219 129.438L363.094 129.688C362.594 131.104 362.25 132.51 362.062 133.906C362.396 133.823 362.771 133.75 363.188 133.688C363.604 133.625 364 133.573 364.375 133.531C364.75 133.49 365.062 133.458 365.312 133.438C365.562 133.417 365.698 133.406 365.719 133.406L365.969 133.312L366.219 133.469C367.406 133.948 368.417 134.312 369.25 134.562C370.083 134.812 370.927 134.938 371.781 134.938C372.365 134.938 373 134.875 373.688 134.75C374.375 134.625 375.156 134.448 376.031 134.219L376.406 134.094L376.719 134.344C376.74 134.385 376.854 134.521 377.062 134.75C377.292 134.958 377.531 135.292 377.781 135.75C378.031 136.188 378.26 136.75 378.469 137.438C378.677 138.104 378.781 138.906 378.781 139.844C378.76 140.781 378.615 141.594 378.344 142.281C378.073 142.969 377.781 143.552 377.469 144.031C377.156 144.49 376.865 144.844 376.594 145.094C376.323 145.344 376.177 145.479 376.156 145.5L375.75 145.688L375.375 145.562C374.146 145.104 373.125 144.781 372.312 144.594C371.5 144.385 370.708 144.281 369.938 144.281C369.396 144.281 368.833 144.333 368.25 144.438C367.667 144.521 366.99 144.656 366.219 144.844H365.781C365.198 144.74 364.615 144.625 364.031 144.5C363.469 144.354 362.896 144.219 362.312 144.094C362.104 144.323 361.833 144.573 361.5 144.844C361.188 145.094 360.792 145.323 360.312 145.531C359.854 145.74 359.312 145.906 358.688 146.031C358.083 146.177 357.396 146.25 356.625 146.25C355.396 146.25 354.375 146.083 353.562 145.75C352.771 145.417 352.135 145.052 351.656 144.656C351.198 144.24 350.875 143.865 350.688 143.531C350.5 143.177 350.406 142.979 350.406 142.938L350.281 142.688L350.406 142.344C350.885 141.198 351.24 140.021 351.469 138.812C351.698 137.604 351.812 136.375 351.812 135.125C351.812 134.25 351.76 133.365 351.656 132.469C351.573 131.573 351.417 130.646 351.188 129.688V129.281C351.438 128.26 351.635 127.26 351.781 126.281C351.948 125.281 352.031 124.281 352.031 123.281C352.031 122.177 351.938 121.094 351.75 120.031C351.562 118.969 351.312 117.917 351 116.875L350.938 116.562L351.062 116.312C351.521 115.188 351.854 114.062 352.062 112.938C352.292 111.792 352.406 110.656 352.406 109.531C352.406 108.615 352.333 107.708 352.188 106.812C352.062 105.896 351.854 104.969 351.562 104.031L351.438 103.625L351.688 103.312C351.708 103.292 351.833 103.167 352.062 102.938C352.292 102.688 352.635 102.427 353.094 102.156C353.573 101.865 354.167 101.615 354.875 101.406C355.583 101.177 356.427 101.062 357.406 101.062C358.531 101.062 359.49 101.219 360.281 101.531C361.073 101.844 361.708 102.177 362.188 102.531C362.792 102.469 363.427 102.375 364.094 102.25C364.76 102.125 365.427 101.948 366.094 101.719L366.344 101.594L366.688 101.656C367.688 101.969 368.552 102.208 369.281 102.375C370.031 102.521 370.74 102.594 371.406 102.594C372.135 102.594 372.896 102.5 373.688 102.312C374.479 102.125 375.406 101.844 376.469 101.469L376.844 101.312L377.188 101.531C377.208 101.552 377.344 101.667 377.594 101.875C377.844 102.083 378.115 102.406 378.406 102.844C378.698 103.26 378.969 103.802 379.219 104.469C379.49 105.115 379.656 105.906 379.719 106.844V107.406C379.719 108.24 379.615 108.979 379.406 109.625C379.198 110.271 378.958 110.823 378.688 111.281C378.438 111.719 378.198 112.052 377.969 112.281C377.76 112.51 377.646 112.635 377.625 112.656L377.312 112.906L376.844 112.781C375.844 112.552 374.99 112.385 374.281 112.281C373.573 112.156 372.917 112.094 372.312 112.094C371.604 112.094 370.896 112.177 370.188 112.344C369.5 112.49 368.667 112.719 367.688 113.031L367.25 113.094C366.375 112.927 365.531 112.802 364.719 112.719C363.927 112.635 363.125 112.594 362.312 112.594C362.375 113.177 362.458 113.76 362.562 114.344C362.688 114.906 362.844 115.479 363.031 116.062V116.5C362.906 116.875 362.802 117.25 362.719 117.625C362.656 117.979 362.594 118.354 362.531 118.75C363.135 118.917 363.698 119.031 364.219 119.094C364.76 119.156 365.323 119.188 365.906 119.188C366.677 119.188 367.458 119.125 368.25 119C369.042 118.854 369.906 118.635 370.844 118.344L371.219 118.219L371.531 118.469C371.552 118.49 371.677 118.615 371.906 118.844C372.156 119.052 372.417 119.385 372.688 119.844C372.979 120.281 373.229 120.844 373.438 121.531C373.667 122.198 373.781 122.99 373.781 123.906Z" fill="#460BED"/>

</g>/>
<defs>
<filter id="filter0_bf" x="0" y="11" width="433" height="220" filterUnits="userSpaceOnUse" color-interpolation-filters="sRGB">
<feFlood flood-opacity="0" result="BackgroundImageFix"/>
<feGaussianBlur in="BackgroundImage" stdDeviation="2"/>
<feComposite in2="SourceAlpha" operator="in" result="effect1_backgroundBlur"/>
<feBlend mode="normal" in="SourceGraphic" in2="effect1_backgroundBlur" result="shape"/>
<feGaussianBlur stdDeviation="2" result="effect2_foregroundBlur"/>
</filter>
<filter id="filter1_d" x="139.594" y="98.5312" width="245.125" height="58.1736" filterUnits="userSpaceOnUse" color-interpolation-filters="sRGB">
<feFlood flood-opacity="0" result="BackgroundImageFix"/>
<feColorMatrix in="SourceAlpha" type="matrix" values="0 0 0 0 0 0 0 0 0 0 0 0 0 0 0 0 0 0 127 0"/>
<feOffset dy="4"/>
<feGaussianBlur stdDeviation="2"/>
<feColorMatrix type="matrix" values="0 0 0 0 0 0 0 0 0 0 0 0 0 0 0 0 0 0 0.25 0"/>
<feBlend mode="normal" in2="BackgroundImageFix" result="effect1_dropShadow"/>
<feBlend mode="normal" in="SourceGraphic" in2="effect1_dropShadow" result="shape"/>
</filter>
</defs>
</svg>
